<svg xmlns="http://www.w3.org/2000/svg" xmlns:xlink="http://www.w3.org/1999/xlink" viewBox="0,0,256,256" width="96px" height="96px" fill-rule="nonzero"><g fill="#ffffff" fill-rule="nonzero" stroke="none" stroke-width="1" stroke-linecap="butt" stroke-linejoin="miter" stroke-miterlimit="10" stroke-dasharray="" stroke-dashoffset="0" font-family="none" font-weight="none" font-size="none" text-anchor="none" style="mix-blend-mode: normal"><g transform="scale(8,8)"><path d="M14.72852,4.00781c-4.53127,0.33396 -12.78267,10.27744 -9.62305,12.94531l0.78906,0.66992c-0.213,0.571 -0.28775,1.18502 -0.21875,1.79102c0.18,1.785 1.92338,3.23052 3.60937,3.22852c3.086,7.113 14.32052,7.12416 17.22852,0.16016c0.092,-0.24 0.48633,-1.31758 0.48633,-2.26758c0,-0.95 -0.53977,-1.34961 -0.88477,-1.34961c-0.179,-0.627 -0.29472,-0.69914 -0.51172,-0.99414c0.131,-0.196 0.81694,-1.2835 -0.16406,-2.3125c-0.556,-0.584 -1.66383,-0.98675 -2.04883,-1.09375c-0.08,-0.609 0.24861,-3.1385 -1.15039,-4.4375c1.111,-1.151 1.76177,-2.41881 1.75977,-3.50781c-0.003,-2.093 -2.52927,-2.72702 -5.69727,-1.41602l-0.67187,0.28516c-0.003,-0.003 -1.21442,-1.18908 -1.23242,-1.20508c-0.45138,-0.39375 -1.0226,-0.5438 -1.66992,-0.49609zM15.14063,4.87305c0.12981,0.00629 0.25306,0.02583 0.36719,0.05664c0.297,0.084 1.2793,1.22266 1.2793,1.22266c0,0 -1.82558,1.01183 -3.51758,2.42383c-2.281,1.757 -4.00316,4.30913 -5.03516,7.07813c-0.81,0.158 -1.52589,0.61791 -1.96289,1.25391c-0.261,-0.218 -0.74703,-0.64173 -0.83203,-0.80273c-0.695,-1.328 0.7603,-3.90242 1.7793,-5.35742c2.36063,-3.36938 5.97477,-5.96934 7.92188,-5.875zM18.32617,8.14258c0.023,-0.002 0.04097,0.01706 0.04297,0.03906c0.001,0.014 -0.00463,0.02616 -0.01562,0.03516c-0.154,0.119 -0.29311,0.25906 -0.41211,0.41406c-0.013,0.018 -0.00823,0.04169 0.00977,0.05469c0.007,0.005 0.01444,0.00681 0.02344,0.00781c0.658,0.005 1.58441,0.23522 2.19141,0.57422c0.041,0.023 0.0128,0.1018 -0.0332,0.0918c-3.718,-0.852 -6.58041,0.99255 -7.19141,1.43555c-0.019,0.012 -0.04269,0.00533 -0.05469,-0.01367c-0.01,-0.015 -0.00905,-0.03288 0.00195,-0.04687h-0.00391c0.895,-1.034 1.99738,-1.9325 2.98438,-2.4375c0.019,-0.011 0.04173,-0.00533 0.05273,0.01367c0.007,0.012 0.007,0.02606 0,0.03906c-0.078,0.142 -0.22934,0.44578 -0.27734,0.67578c-0.005,0.022 0.00925,0.04383 0.03125,0.04883c0.011,0.003 0.02225,0.00014 0.03125,-0.00586c0.614,-0.419 1.68314,-0.86778 2.61914,-0.92578zM21.50781,11.36133c0.12375,0.0205 0.24356,0.06577 0.35156,0.13477c0.535,0.355 0.60872,1.21475 0.63672,1.84375c0.016,0.359 0.05922,1.22856 0.07422,1.47656c0.034,0.57 0.18428,0.65105 0.48828,0.74805c0.171,0.056 0.32755,0.09806 0.56055,0.16406c0.706,0.198 0.97419,0.50272 1.24219,0.76172c0.136,0.134 0.22591,0.30709 0.25391,0.49609c0.083,0.608 -0.32297,1.2555 -1.79297,1.9375c-2.497,1.159 -5.00809,0.77147 -5.37109,0.73047c-1.077,-0.145 -1.69092,1.24817 -1.04492,2.20117c1.21,1.786 6.54184,1.06938 8.08984,-1.14062c0.037,-0.053 0.00594,-0.08669 -0.03906,-0.05469c-2.233,1.528 -5.18623,2.04263 -6.86523,1.39063c-0.255,-0.099 -0.78852,-0.34362 -0.85352,-0.89062c2.331,0.721 3.79492,0.03906 3.79492,0.03906c0,0 0.1087,-0.15072 -0.0293,-0.13672c0,0 -1.9108,0.28209 -3.7168,-0.37891c0.332,-1.078 1.44234,0.32572 5.15234,-0.73828c0.817,-0.234 1.74212,-0.59095 2.57813,-1.25195c0.247,0.257 0.4563,0.74931 0.5293,1.19531c0.196,-0.035 0.76133,-0.0292 0.61133,0.9668c-0.176,1.062 -0.62577,1.92475 -1.38477,2.71875c-0.474,0.514 -1.03902,0.93609 -1.66602,1.24609c-0.349,0.183 -0.71194,0.33598 -1.08594,0.45898c-2.86,0.934 -5.79033,-0.09283 -6.73633,-2.29883c-0.077,-0.168 -0.13945,-0.34248 -0.18945,-0.52148c-0.403,-1.454 -0.06019,-3.19888 1.00781,-4.29687c0.066,-0.07 0.13281,-0.15186 0.13281,-0.25586c-0.009,-0.089 -0.04552,-0.17319 -0.10352,-0.24219c-0.374,-0.541 -1.66625,-1.46495 -1.40625,-3.25195c0.187,-1.283 1.30847,-2.18681 2.35547,-2.13281l0.26758,0.01563c0.453,0.027 0.84866,0.08461 1.22266,0.09961c0.625,0.027 1.18656,-0.06319 1.85156,-0.61719c0.225,-0.187 0.40498,-0.34939 0.70898,-0.40039c0.124,-0.031 0.25125,-0.03613 0.375,-0.01562zM21.30664,13.5293c-0.333,0.054 -0.34556,0.46806 -0.22656,1.03906c0.067,0.321 0.18631,0.59367 0.32031,0.76367c0.165,-0.021 0.33109,-0.021 0.49609,0c0.089,-0.205 0.10539,-0.55645 0.02539,-0.93945c-0.119,-0.57 -0.28223,-0.91728 -0.61523,-0.86328zM17.48828,15.08398c-0.28213,0.034 -0.55647,0.139 -0.79297,0.3125c-0.16,0.117 -0.31106,0.27895 -0.28906,0.37695c0.045,0.2 0.53598,-0.14455 1.20898,-0.18555c0.374,-0.023 0.68388,0.09326 0.92188,0.19726c0.239,0.107 0.38536,0.17523 0.44336,0.11524c0.101,-0.104 -0.18644,-0.50317 -0.64844,-0.70117c-0.271,-0.1125 -0.56162,-0.14923 -0.84375,-0.11524zM21.78906,15.87891v0.00195c-0.409,-0.007 -0.42467,0.84456 -0.01367,0.85156c0.411,0.007 0.42567,-0.84552 0.01367,-0.85352zM18.05664,16.06055c-0.485,0.076 -0.8027,0.34806 -0.7207,0.53906c0.048,0.018 0.06234,0.04303 0.27734,-0.04297c0.319,-0.12 0.66495,-0.15552 1.00195,-0.10352c0.156,0.018 0.22967,0.02861 0.26367,-0.02539c0.078,-0.119 -0.30427,-0.42819 -0.82227,-0.36719zM20.41016,16.45117c-0.09425,0.011 -0.17741,0.05569 -0.22266,0.14844c-0.18155,0.36909 0.58025,0.73945 0.76367,0.375c0.13575,-0.27525 -0.25827,-0.55644 -0.54102,-0.52344zM8.89648,16.48047c0.9702,0.03062 1.9205,0.71575 2.14844,2.1875c0.243,1.584 -0.25022,3.12684 -1.82422,3.08984l0.00195,0.00195c-1.22,-0.033 -2.53697,-1.13159 -2.66797,-2.43359c-0.18562,-1.84331 1.0944,-2.88507 2.3418,-2.8457zM8.82617,17.40039c-0.35937,-0.01075 -0.70494,0.14928 -0.89844,0.36328c-0.466,0.513 -0.46658,1.25811 -0.26758,1.28711c0.228,0.03 0.21853,-0.34509 0.39453,-0.62109c0.206,-0.318 0.63122,-0.40912 0.94922,-0.20313c0.002,0.001 0.00386,0.00191 0.00586,0.00391c0.62,0.406 0.07209,0.9483 0.12109,1.5293c0.074,0.892 0.9853,0.87447 1.1543,0.48047c0.022,-0.04 0.01728,-0.089 -0.01172,-0.125c0.002,0.048 0.03726,-0.06753 -0.17774,-0.01953l-0.00195,0.00195c-0.071,0.017 -0.32113,0.079 -0.45312,-0.125c-0.278,-0.428 0.59416,-1.08911 0.16016,-1.91211c-0.243,-0.467 -0.61523,-0.64941 -0.97461,-0.66016z"></path></g></g></svg>